# xmcd CD database file
#
# Track frame offsets:
#	150
#	15223
#	33800
#	44691
#	59530
#	62267
#	71583
#	78059
#	93516
#	100655
#	126999
#	133864
#	139276
#	151996
#	168791
#	173805
#	178848
#	182282
#	201648
#	211221
#	225644
#	230422
#	234336
#	238590
#	243370
#	248022
#	253036
#	264426
#	291795
#	297557
#	303574
#	307594
#	312827
#	317443
#
# Disc length: 4426 seconds
#
# Revision: 1
# Processed by: cddbd v1.5.2PL0 Copyright (c) Steve Scherf et al.
# Submitted via: CDex 1.70beta2
#
DISCID=ce114822
DTITLE=Karl Krolow - Im Inneren des Augenblicks CD 2
DYEAR=1994
DGENRE=Blues
TTITLE0=Über seinen Zyklus °Körper°
TTITLE1=Körper I, II, IV, V
TTITLE2=Über seinen Zyklus °Licht°
TTITLE3=Licht I, III, V, VI, VII, VIII
TTITLE4=Gedichte, Gedichte. Eine Annäherung an Karl Krolow. Feature von Kurt Drawert. Ansage
TTITLE5=Karl Krolow  °Selbstbildnis mit der Rumflasche°, Gedicht 1953
TTITLE6=Zwischentext
TTITLE7=Karl Krolow
TTITLE8=Zwischentext
TTITLE9=Karl Krolow
TTITLE10=°Drei Orangen, zwei Zitronen°, Gedicht 1953
TTITLE11=°Orte der Geometrie°, Gedicht 1953
TTITLE12=Zwischentext
TTITLE13=Karl Krolow
TTITLE14=°Ziemlich viel Glück°, Gedicht 1955
TTITLE15=°Robinson°, Gedicht 1958
TTITLE16=Zwischentext
TTITLE17=Karl Krolow
TTITLE18=Zwischentext
TTITLE19=Karl Krolow
TTITLE20=°Ariel°, Gedicht 1964
TTITLE21=°Zeit°, Gedicht 1965
TTITLE22=°Einen Satz lang°, Gedicht 1967
TTITLE23=°Weltmaschine°, Gedicht 1969
TTITLE24=°Keine Ideen°, Gedicht 1971
TTITLE25=°Aussicht°, Gedicht 1975
TTITLE26=Zwischentext
TTITLE27=Karl Krolow
TTITLE28=°Tod als Schneemann°, Gedicht 1983
TTITLE29=°Als es so weit war°, Gedicht 1988
TTITLE30=°Gewißheit°, Gedicht 1988
TTITLE31=°Manchmal°, Gedicht 1988
TTITLE32=°Bare Münze°, Gedicht 1988
TTITLE33=°Ade°, Gedicht 1988
EXTD=YEAR: 1994
EXTT0=
EXTT1=
EXTT2=
EXTT3=
EXTT4=
EXTT5=
EXTT6=
EXTT7=
EXTT8=
EXTT9=
EXTT10=
EXTT11=
EXTT12=
EXTT13=
EXTT14=
EXTT15=
EXTT16=
EXTT17=
EXTT18=
EXTT19=
EXTT20=
EXTT21=
EXTT22=
EXTT23=
EXTT24=
EXTT25=
EXTT26=
EXTT27=
EXTT28=
EXTT29=
EXTT30=
EXTT31=
EXTT32=
EXTT33=
PLAYORDER=
